# xmcd
# 
# Track frame offsets:
#     150
#     18722
#     23247
#     45392
#     63990
# 
# Disc length: 1146
# 
# Revision: 0
# Processed by: cddbd v1.5.2PL0 Copyright (c) Steve Scherf et al.
# Submitted via: fre:ac v1.0.17
# 
DISCID=38047805
DTITLE=AAA - NEW
DYEAR=0
DGENRE=JPop
TTITLE0=NEW
TTITLE1=～Interlude～
TTITLE2=LEAP of FAITH
TTITLE3=NEW insutrumental
TTITLE4=LEAP of FAITH  insutrumental
EXTD=
EXTT0=
EXTT1=
EXTT2=
EXTT3=
EXTT4=
PLAYORDER=
